<svg viewBox="0 0 56 63" fill="none" xmlns="http://www.w3.org/2000/svg">
<path fill-rule="evenodd" clip-rule="evenodd" d="M11 22.4C11 14.5593 11 10.6389 12.5259 7.64413C13.8681 5.00986 16.0099 2.86814 18.6441 1.52591C21.6389 0 25.5926 0 33.5 0C41.4074 0 45.3611 0 48.3559 1.52591C50.9901 2.86814 53.1319 5.00986 54.4741 7.64413C56 10.6389 56 14.5593 56 22.4V40.6C56 48.4407 56 52.3611 54.4741 55.3559C53.1319 57.9901 50.9901 60.1319 48.3559 61.4741C45.3611 63 41.4074 63 33.5 63C25.5926 63 21.6389 63 18.6441 61.4741C16.0099 60.1319 13.8681 57.9901 12.5259 55.3559C11 52.3611 11 48.4407 11 40.6V22.4Z" fill="#E3F2FF"/>
<path d="M3.5386 19.6321C3.5386 27.9722 2.72821 32.7361 0.9375 36.0382C2.84584 38.1656 4.33592 38.1656 5.826 38.3483L32.0069 40.28C32.6343 40.019 33.327 39.8232 34.1374 39.6666C35.4184 39.4186 36.451 39.3011 35.2092 37.3433C35.157 37.265 35.1047 37.1867 35.0524 37.1084C32.7781 33.7672 31.7847 28.8989 31.7847 19.606C31.7063 18.2617 31.5625 16.9304 31.2619 15.6383C28.4647 3.86565 12.7535 3.10865 9.28977 9.76503C9.14599 10.0391 8.88457 10.0391 8.61009 10.0783C5.85214 10.522 3.5386 14.4245 3.5386 19.6321Z" fill="#233862"/>
<path d="M1.3298 45.2005L0.0227122 55.2895C-0.0818546 56.0856 0.166491 56.2945 0.937671 56.2945H7.39467H27.929H34.386C35.1571 56.2945 35.4055 56.0856 35.3009 55.2895L33.9938 45.2005C33.7063 42.9948 33.0004 41.4285 32.0201 40.28C30.1771 38.1265 27.3538 37.4217 24.5044 36.6516H10.8323C9.08081 37.1345 7.34238 37.5783 5.83924 38.3614C0.989954 40.7368 1.80035 43.8431 1.51279 44.2216C1.43436 44.5218 1.38208 44.8481 1.3298 45.2005Z" fill="#0C72D6"/>
<path d="M14.375 6.04526C19.9955 5.81033 26.5832 8.87748 28.2954 16.0951C28.5961 17.3742 28.7399 18.7054 28.8183 20.0628C28.8183 29.3687 29.8117 34.224 32.086 37.5652C32.1383 37.6435 32.1906 37.7218 32.2428 37.8001C33.2885 39.4446 32.7265 39.784 31.7592 40.0059C31.8376 40.0972 31.9291 40.1886 32.0076 40.28C32.635 40.0189 33.3277 39.8232 34.1381 39.6665C35.4191 39.4185 36.4517 39.3011 35.2099 37.3433C35.1576 37.265 35.1054 37.1867 35.0531 37.1084C32.7787 33.7671 31.7854 28.8988 31.7854 19.606C31.7069 18.2617 31.5632 16.9304 31.2625 15.6383C29.2235 7.0894 20.3876 4.34853 14.375 6.04526Z" fill="#122855"/>
<path d="M10.832 36.6386L16.2434 40.2931C17.3413 41.1153 17.9818 41.1153 19.0797 40.2931L24.5041 36.6386C22.9748 36.2209 22.5696 34.2371 22.2429 33.6106H13.0802C12.7665 34.2501 12.3613 36.2209 10.832 36.6386Z" fill="#E8945B"/>
<path d="M7.77344 25.1921C7.77344 28.1027 10.0216 31.6136 13.0802 33.6105C13.7468 34.0412 14.4526 34.4067 15.1846 34.6807C16.0865 35.007 16.8707 35.1767 17.655 35.1767C18.4392 35.1767 19.2366 35.007 20.1254 34.6807C20.8573 34.4197 21.5632 34.0412 22.2298 33.6105C25.2884 31.6136 27.5366 28.1027 27.5366 25.1921V22.1772C23.5369 21.9031 24.1251 18.849 21.3671 19.5538C19.2366 20.102 18.4523 20.376 17.655 20.376C16.8577 20.376 16.0734 20.102 13.9429 19.5538C11.1849 18.849 11.7862 21.89 7.77344 22.1772V25.1921Z" fill="#FFB27D"/>
<path d="M13.0801 33.6106C12.8971 33.976 12.6879 34.8114 12.2305 35.5162C13.7336 36.6517 17.9424 38.0873 20.1906 36.8605C20.7919 36.5342 20.6742 36.5864 20.9095 36.9127C21.0794 37.1607 21.6023 37.6827 22.2427 38.1787L24.504 36.6517C22.9747 36.234 22.5695 34.2501 22.2427 33.6236C21.5761 34.0544 20.8703 34.4198 20.1383 34.6939C19.2364 35.0202 18.4522 35.1899 17.6679 35.1899C16.8706 35.1899 16.0864 35.0202 15.1976 34.6939C14.4525 34.4068 13.7467 34.0413 13.0801 33.6106Z" fill="#DD864B"/>
<path d="M24.596 24.1089C24.596 27.0195 22.3478 30.5173 19.2893 32.5273C18.6226 32.958 17.9168 33.3235 17.1849 33.5975C17.1718 33.6106 17.1456 33.6106 17.1326 33.6106C16.2568 33.9369 15.4856 34.0935 14.7014 34.0935C14.3746 34.0935 14.0478 34.0674 13.708 34.0152C14.1786 34.2762 14.6622 34.5112 15.1589 34.6939C16.0608 35.0202 16.845 35.1899 17.6293 35.1899C18.4135 35.1899 19.2108 35.0202 20.0997 34.6939C20.8316 34.4329 21.5374 34.0544 22.2041 33.6237C25.2626 31.6267 27.5108 28.1158 27.5108 25.2053V22.1903C26.0469 22.0859 25.1973 21.6161 24.5699 21.0809V24.1089H24.596Z" fill="#E8945B"/>
<path d="M28.2557 41.1545C29.2491 42.303 29.955 43.8692 30.2425 46.075L31.5496 56.164C31.5888 56.4641 33.9938 56.2945 34.386 56.2945C35.1572 56.2945 35.4055 56.0856 35.3009 55.2895L33.9938 45.2005C33.7063 42.9948 33.0005 41.4285 32.0201 40.28C31.9417 40.1886 31.8502 40.0973 31.7718 40.0059C29.9288 38.0743 27.2232 37.3956 24.5044 36.6516L22.2432 38.1787C23.5895 38.5963 25.6808 39.0923 26.7787 39.8362C27.3146 40.2017 27.8244 40.6324 28.2557 41.1545Z" fill="#005CB6"/>
<path d="M6.375 56.2814V50.5125C6.375 49.9513 6.83248 49.4945 7.39453 49.4945C7.95657 49.4945 8.41405 49.9513 8.41405 50.5125V56.2814H6.375ZM26.9093 56.2814V50.5125C26.9093 49.9513 27.3668 49.4945 27.9288 49.4945C28.4909 49.4945 28.9483 49.9513 28.9483 50.5125V56.2814H26.9093Z" fill="#005CB6"/>
</svg>
